<svg xmlns="http://www.w3.org/2000/svg" width="20.85" height="9.122" viewBox="0 0 20.85 9.122">
  <path id="Icon_awesome-cloud" data-name="Icon awesome-cloud" d="M17.514,6.212a1.341,1.341,0,0,0,.208-.7c0-1.079-1.4-1.955-3.127-1.955a4.535,4.535,0,0,0-1.736.33A6.246,6.246,0,0,0,8.34,2.25c-2.88,0-5.212,1.458-5.212,3.258,0,.055,0,.11.007.165C1.31,6.074,0,7.161,0,8.44c0,1.619,2.1,2.932,4.691,2.932H16.68c2.3,0,4.17-1.167,4.17-2.606C20.85,7.505,19.416,6.453,17.514,6.212Z" transform="translate(0 -2.25)" fill="#fff"/>
</svg>
